<svg xmlns="http://www.w3.org/2000/svg" viewBox="0 0 480 480" role="img" aria-labelledby="title">
  <title id="title">SummitShell 32 expedition backpack illustration</title>
  <rect width="480" height="480" fill="#d6d2c3"/>
  <path d="M32 394 152 101l70 99 59-139 167 333Z" fill="#173d2c" stroke="#18201c" stroke-width="7"/>
  <path d="m152 101 70 99 59-139 33 66-48 267H103Z" fill="#f2eedf" opacity=".18"/>
  <path d="M166 106h148l27 251c3 27-16 43-46 43H185c-30 0-49-16-46-43Z" fill="#6f7f42" stroke="#18201c" stroke-width="8"/>
  <path d="M174 79h132v73H174Z" fill="#f24b18" stroke="#18201c" stroke-width="8"/>
  <path d="M160 193h160v151H160Z" fill="#f2eedf" stroke="#18201c" stroke-width="8"/>
  <path d="m184 235 56-27 56 27-56 27Z" fill="#d7f238" stroke="#18201c" stroke-width="6"/>
  <path d="M185 294h110" stroke="#173d2c" stroke-width="9"/>
  <path d="M139 159c-30 33-38 110-24 181M341 159c30 33 38 110 24 181" fill="none" stroke="#18201c" stroke-width="12"/>
</svg>
